<svg xmlns="http://www.w3.org/2000/svg" viewBox="0 0 1440 900" role="img" aria-labelledby="title desc">
  <title id="title">KLite plugin marketplace</title>
  <desc id="desc">A dark marketplace window showing reviewed plugins, filters, account login, and Run controls.</desc>
  <defs>
    <linearGradient id="panel" x1="0" y1="0" x2="1" y2="1"><stop stop-color="#101820"/><stop offset="1" stop-color="#0b1017"/></linearGradient>
    <linearGradient id="button" x1="0" y1="0" x2="1" y2="0"><stop stop-color="#03d7ff"/><stop offset="1" stop-color="#39efcb"/></linearGradient>
    <filter id="shadow"><feDropShadow dx="0" dy="24" stdDeviation="30" flood-color="#000" flood-opacity=".6"/></filter>
  </defs>
  <rect width="1440" height="900" fill="#05080d"/>
  <path d="M0 0H760L340 900H0Z" fill="#00c8ed" opacity=".035"/>
  <path d="M1440 0H1000L1220 900H1440Z" fill="#ff7a2d" opacity=".04"/>
  <g filter="url(#shadow)">
    <rect x="82" y="70" width="1276" height="760" rx="24" fill="url(#panel)" stroke="#344351" stroke-width="2"/>
    <rect x="82" y="70" width="1276" height="72" rx="24" fill="#151c24"/>
    <rect x="82" y="112" width="1276" height="30" fill="#151c24"/>
    <text x="122" y="115" fill="#eef5f8" font-family="Segoe UI,Arial" font-size="25" font-weight="800">KLite Plugin Marketplace</text>
    <text x="1120" y="114" fill="#72e4f8" font-family="Segoe UI,Arial" font-size="16" font-weight="700">SIGNED IN AS KSP</text>

    <rect x="112" y="170" width="1216" height="84" rx="14" fill="#0b1118" stroke="#263540"/>
    <rect x="136" y="192" width="526" height="40" rx="8" fill="#171f28" stroke="#344553"/>
    <text x="158" y="218" fill="#768a99" font-family="Segoe UI,Arial" font-size="16">Search reviewed plugins</text>
    <rect x="680" y="192" width="190" height="40" rx="8" fill="#171f28"/>
    <text x="704" y="218" fill="#d5e0e6" font-family="Segoe UI,Arial" font-size="15">All categories</text>
    <rect x="888" y="192" width="170" height="40" rx="8" fill="#171f28"/>
    <text x="912" y="218" fill="#d5e0e6" font-family="Segoe UI,Arial" font-size="15">All types</text>
    <rect x="1076" y="192" width="228" height="40" rx="8" fill="#171f28"/>
    <text x="1100" y="218" fill="#d5e0e6" font-family="Segoe UI,Arial" font-size="15">Trending today</text>

    <rect x="112" y="282" width="590" height="224" rx="16" fill="#111922" stroke="#405363"/>
    <rect x="138" y="312" width="72" height="72" rx="15" fill="#071018" stroke="#1bd7f6"/>
    <text x="154" y="363" fill="#1ad7f8" font-family="Georgia,serif" font-size="42" font-weight="700">K</text>
    <text x="180" y="363" fill="#ff762a" font-family="Georgia,serif" font-size="42" font-weight="700">L</text>
    <text x="236" y="330" fill="#f3f7f9" font-family="Segoe UI,Arial" font-size="22" font-weight="800">Copper and Tin Miner</text>
    <text x="236" y="362" fill="#91a5b4" font-family="Segoe UI,Arial" font-size="15">Alternates ores at Varrock East, then banks safely.</text>
    <rect x="236" y="390" width="72" height="28" rx="14" fill="#10363f"/>
    <text x="253" y="409" fill="#54e4f7" font-family="Segoe UI,Arial" font-size="13" font-weight="700">MINING</text>
    <rect x="318" y="390" width="108" height="28" rx="14" fill="#2b231c"/>
    <text x="337" y="409" fill="#ff9b63" font-family="Segoe UI,Arial" font-size="13" font-weight="700">MONEYMAKING</text>
    <text x="138" y="470" fill="#8599a8" font-family="Segoe UI,Arial" font-size="14">By KSP • v1.0.0 • Free • Verified artifact</text>
    <rect x="560" y="442" width="112" height="40" rx="9" fill="url(#button)"/>
    <text x="597" y="468" fill="#061017" font-family="Segoe UI,Arial" font-size="15" font-weight="900">RUN</text>

    <rect x="728" y="282" width="600" height="224" rx="16" fill="#111922" stroke="#2d3b47"/>
    <rect x="754" y="312" width="72" height="72" rx="15" fill="#17110e" stroke="#ff7a31"/>
    <text x="775" y="361" fill="#ff7a31" font-family="Georgia,serif" font-size="38" font-weight="700">R</text>
    <text x="852" y="330" fill="#f3f7f9" font-family="Segoe UI,Arial" font-size="22" font-weight="800">KLite Example</text>
    <text x="852" y="362" fill="#91a5b4" font-family="Segoe UI,Arial" font-size="15">Source-only development example and overlay demo.</text>
    <rect x="852" y="390" width="72" height="28" rx="14" fill="#2a2220"/>
    <text x="870" y="409" fill="#ffa170" font-family="Segoe UI,Arial" font-size="13" font-weight="700">OTHER</text>
    <text x="754" y="470" fill="#8599a8" font-family="Segoe UI,Arial" font-size="14">By KSP • v1.0.0 • Free • Coming soon</text>
    <rect x="1178" y="442" width="120" height="40" rx="9" fill="#1b242d" stroke="#3e4e5c"/>
    <text x="1196" y="468" fill="#8ca0ae" font-family="Segoe UI,Arial" font-size="14" font-weight="700">COMING SOON</text>

    <rect x="112" y="536" width="1216" height="254" rx="16" fill="#0b1118" stroke="#25333e"/>
    <text x="140" y="578" fill="#63dff4" font-family="Segoe UI,Arial" font-size="14" font-weight="800" letter-spacing="2">SECURITY PIPELINE</text>
    <text x="140" y="618" fill="#f2f6f8" font-family="Segoe UI,Arial" font-size="25" font-weight="800">Reviewed source. Pinned hash. In-memory loading.</text>
    <text x="140" y="654" fill="#8fa3b2" font-family="Segoe UI,Arial" font-size="16">Marketplace artifacts are checked against catalog size and SHA-256 before the client loads them.</text>
    <g transform="translate(140 692)">
      <rect width="230" height="54" rx="10" fill="#111c24"/>
      <circle cx="28" cy="27" r="11" fill="#46d591"/>
      <text x="52" y="33" fill="#dce7ec" font-family="Segoe UI,Arial" font-size="15">Reviewed submission</text>
      <rect x="250" width="230" height="54" rx="10" fill="#111c24"/>
      <circle cx="278" cy="27" r="11" fill="#00cef1"/>
      <text x="302" y="33" fill="#dce7ec" font-family="Segoe UI,Arial" font-size="15">Verified artifact</text>
      <rect x="500" width="230" height="54" rx="10" fill="#111c24"/>
      <circle cx="528" cy="27" r="11" fill="#ff7b34"/>
      <text x="552" y="33" fill="#dce7ec" font-family="Segoe UI,Arial" font-size="15">Revocable access</text>
      <rect x="750" width="230" height="54" rx="10" fill="#111c24"/>
      <circle cx="778" cy="27" r="11" fill="#a68cff"/>
      <text x="802" y="33" fill="#dce7ec" font-family="Segoe UI,Arial" font-size="15">Memory-only runtime</text>
    </g>
  </g>
</svg>
